<svg id="Capa_1" enable-background="new 0 0 512.001 512.001" height="512" viewBox="0 0 512.001 512.001" width="512" xmlns="http://www.w3.org/2000/svg"><path d="m349.168 289.62c.779-8.289.665-16.664-.348-24.928-1.222-9.935-3.738-19.563-7.458-28.694-.464-1.137-.943-2.268-1.444-3.389-5.563-12.458-13.417-23.915-23.353-33.849-.143-.143-.289-.289-.434-.432-6.607-6.536-13.832-12.095-21.485-16.692l-35.473 35.094c-3.267 3.233-5.399 7.145-6.323 11.487 7.767 2.523 15.028 6.765 21.078 12.751l.205.205c10.063 10.061 15.585 23.467 15.548 37.748-.038 14.279-5.633 27.656-15.753 37.67l-121.008 119.716c-20.915 20.692-56.255 20.692-77.17 0l-.204-.204c-10.063-10.061-15.585-23.467-15.548-37.748.039-14.28 5.633-27.656 15.752-37.668l69.203-68.464c-8.272-18.293-12.633-38.307-12.632-59.003 0-4.543.217-9.051.632-13.517l-99.404 98.342c-21.634 21.404-33.549 49.976-33.549 80.452 0 30.273 11.753 58.664 33.115 80.018.143.143.29.29.434.433 44.546 44.07 117.027 44.07 161.574 0l121.009-119.717c18.886-18.684 30.362-42.831 32.974-68.939z"/><path d="m195.869 313.672c6.607 6.536 13.832 12.095 21.485 16.692l35.473-35.094c3.267-3.232 5.4-7.145 6.323-11.487-7.767-2.522-15.029-6.765-21.079-12.752l-.205-.205c-10.063-10.061-15.584-23.467-15.547-37.747.038-14.279 5.633-27.658 15.753-37.67l121.009-119.716c20.915-20.691 56.254-20.691 77.168.001l.156.155c10.111 10.109 15.633 23.515 15.596 37.796-.039 14.28-5.633 27.656-15.753 37.669l-69.203 68.464c8.272 18.294 12.633 38.308 12.633 59.002 0 4.543-.217 9.051-.631 13.516l99.404-98.342c21.634-21.403 33.548-49.974 33.548-80.451 0-30.272-11.755-58.663-33.114-80.018-.144-.144-.289-.289-.435-.433-44.546-44.07-117.028-44.07-161.573 0l-121.007 119.718c-21.634 21.403-33.549 49.975-33.549 80.451 0 30.274 11.753 58.664 33.115 80.019.143.143.289.289.433.432z"/></svg>