<svg id="Layer_1" enable-background="new 0 0 496 496" height="512" viewBox="0 0 496 496" width="512" xmlns="http://www.w3.org/2000/svg"><path d="m248.391 254.64c53.89 0 97.732-43.842 97.732-97.732s-43.842-97.732-97.732-97.732-97.732 43.842-97.732 97.732 43.842 97.732 97.732 97.732zm0-163.464c36.245 0 65.732 29.487 65.732 65.732s-29.487 65.732-65.732 65.732-65.732-29.487-65.732-65.732 29.487-65.732 65.732-65.732zm-154.173 195.609c33.932 0 61.537-27.605 61.537-61.536 0-33.932-27.605-61.537-61.537-61.537-33.931 0-61.536 27.605-61.536 61.537 0 33.931 27.605 61.536 61.536 61.536zm0-91.073c16.287 0 29.537 13.25 29.537 29.537 0 16.286-13.25 29.536-29.537 29.536-16.286 0-29.536-13.25-29.536-29.536 0-16.287 13.25-29.537 29.536-29.537zm307.564 91.073c33.931 0 61.536-27.605 61.536-61.536 0-33.932-27.605-61.537-61.536-61.537-33.932 0-61.537 27.605-61.537 61.537.001 33.931 27.606 61.536 61.537 61.536zm0-91.073c16.286 0 29.536 13.25 29.536 29.537 0 16.286-13.25 29.536-29.536 29.536-16.287 0-29.537-13.25-29.537-29.536.001-16.287 13.251-29.537 29.537-29.537zm94.218 150.184v26.392c0 8.836-7.164 16-16 16s-16-7.164-16-16v-26.392c0-2.755-1.625-5.262-4.142-6.385l-27.414-12.24h-51.861c14.512 10.647 23.417 27.731 23.417 46.183v47.37c0 8.836-7.164 16-16 16s-16-7.164-16-16v-47.37c0-9.957-5.875-19.014-14.966-23.073l-51.679-23.075h-4.52c-21.569 43.51-84.075 43.562-105.67 0h-4.52l-51.678 23.075c-9.092 4.059-14.967 13.116-14.967 23.073v47.37c0 8.836-7.164 16-16 16s-16-7.164-16-16v-47.37c0-18.452 8.905-35.536 23.417-46.184h-51.862l-27.413 12.24c-2.517 1.124-4.142 3.63-4.142 6.385v26.392c0 8.836-7.164 16-16 16s-16-7.164-16-16v-26.392c0-15.365 9.065-29.341 23.096-35.605 33.316-14.876 32.52-15.021 37.05-15.021 73.327 0 69.944-.525 74.232 1.39l23.207 10.362 23.127-10.327c4.009-1.79 5.017-1.39 25.54-1.39 7.364 0 13.777 5.026 15.537 12.177 6.707 27.256 45.713 27.269 52.423 0 1.76-7.15 8.173-12.177 15.537-12.177h19.017c4.506 0 4.708.58 29.651 11.717 25.203-11.253 25.266-11.752 29.73-11.752 73.327 0 69.942-.526 74.232 1.39l30.527 13.63c14.029 6.266 23.094 20.242 23.094 35.607z"/></svg>